<svg width="1500" height="980" viewBox="0 0 1500 980" fill="none" xmlns="http://www.w3.org/2000/svg">
  <defs>
    <filter id="shadow" x="-20%" y="-20%" width="140%" height="140%">
      <feDropShadow dx="0" dy="14" stdDeviation="18" flood-color="#101828" flood-opacity="0.14"/>
    </filter>
    <filter id="soft" x="-20%" y="-20%" width="140%" height="140%">
      <feDropShadow dx="0" dy="8" stdDeviation="12" flood-color="#101828" flood-opacity="0.08"/>
    </filter>
    <linearGradient id="heroBlue" x1="0" y1="0" x2="1" y2="1">
      <stop offset="0" stop-color="#102E92"/>
      <stop offset="1" stop-color="#2856D6"/>
    </linearGradient>
    <linearGradient id="bgBlue" x1="0" y1="0" x2="1" y2="1">
      <stop offset="0" stop-color="#F6F8FF"/>
      <stop offset="1" stop-color="#EEF3FF"/>
    </linearGradient>
    <style>
      .title { font: 700 34px Inter, system-ui, -apple-system, BlinkMacSystemFont, "Segoe UI", sans-serif; fill: #111827; }
      .state { font: 800 14px Inter, system-ui, sans-serif; letter-spacing: 3px; fill: #2348B8; }
      .tiny { font: 600 11px Inter, system-ui, sans-serif; letter-spacing: 2px; fill: #8A94A6; }
      .label { font: 700 14px Inter, system-ui, sans-serif; fill: #172033; }
      .muted { font: 500 12px Inter, system-ui, sans-serif; fill: #747B8A; }
      .body { font: 600 14px Inter, system-ui, sans-serif; fill: #2C3445; }
      .kpi { font: 800 22px Inter, system-ui, sans-serif; fill: #FFFFFF; }
      .nav { font: 600 11px Inter, system-ui, sans-serif; fill: #5B6575; }
      .navActive { font: 800 11px Inter, system-ui, sans-serif; fill: #2348B8; }
      .hot { font: 800 13px Inter, system-ui, sans-serif; fill: #FFFFFF; }
      .hotText { font: 700 12px Inter, system-ui, sans-serif; fill: #2348B8; }
    </style>
  </defs>

  <rect width="1500" height="980" fill="#F3F5F9"/>
  <text x="70" y="66" class="title">TillFlow Owner Mobile Navigation - Interactive Review</text>
  <text x="70" y="96" class="muted">Three tap states for the owner experience: Home, More menu, Reports expanded.</text>

  <!-- Screen labels -->
  <text x="110" y="145" class="state">1 HOME STATE</text>
  <text x="565" y="145" class="state">2 MENU OPEN</text>
  <text x="1020" y="145" class="state">3 REPORTS EXPANDED</text>

  <!-- Phone 1 -->
  <g transform="translate(70 165)">
    <rect x="0" y="0" width="390" height="760" rx="38" fill="#FFFFFF" filter="url(#shadow)"/>
    <rect x="16" y="18" width="358" height="724" rx="30" fill="url(#bgBlue)"/>
    <text x="42" y="52" font-family="Inter,system-ui" font-size="18" font-weight="800" fill="#111827">02:15</text>
    <circle cx="319" cy="45" r="4" fill="#111827"/>
    <rect x="336" y="38" width="22" height="13" rx="4" stroke="#111827" stroke-width="2"/>
    <text x="42" y="105" font-family="Inter,system-ui" font-size="24" font-weight="900" fill="#2348B8">TillFlow</text>
    <rect x="42" y="130" width="112" height="34" rx="17" fill="#FFFFFF" stroke="#E3E7EF"/>
    <circle cx="61" cy="147" r="5" fill="#2348B8"/>
    <text x="76" y="152" class="muted">Main Branch</text>
    <rect x="165" y="130" width="110" height="34" rx="17" fill="#DDFBEA"/>
    <text x="184" y="152" font-family="Inter,system-ui" font-size="11" font-weight="900" letter-spacing="2" fill="#00875A">SYNC READY</text>

    <rect x="42" y="188" width="306" height="430" rx="22" fill="url(#heroBlue)" filter="url(#soft)"/>
    <text x="68" y="230" class="tiny" fill="#BFD0FF">GOOD MORNING, AKOSUA</text>
    <text x="68" y="266" font-family="Inter,system-ui" font-size="27" font-weight="900" fill="#FFFFFF">EL-SHADDAI</text>
    <text x="68" y="300" font-family="Inter,system-ui" font-size="27" font-weight="900" fill="#FFFFFF">SUPERMARKET</text>
    <text x="68" y="331" font-family="Inter,system-ui" font-size="14" font-weight="600" fill="#C8D6FF">Command center is ready for follow-up.</text>
    <rect x="68" y="356" width="162" height="31" rx="16" fill="#FFFFFF" opacity="0.16" stroke="#FFFFFF" stroke-opacity="0.25"/>
    <circle cx="87" cy="371" r="5" fill="#F6C343"/>
    <text x="101" y="376" font-family="Inter,system-ui" font-size="12" font-weight="800" fill="#FFE8A3">4 items need attention</text>
    <rect x="68" y="414" width="254" height="78" rx="17" fill="#FFFFFF" opacity="0.08" stroke="#FFFFFF" stroke-opacity="0.15"/>
    <text x="88" y="438" class="tiny" fill="#BFD0FF">REVENUE</text>
    <text x="88" y="469" class="kpi">GH˘0.00</text>
    <rect x="68" y="506" width="254" height="78" rx="17" fill="#FFFFFF" opacity="0.08" stroke="#FFFFFF" stroke-opacity="0.15"/>
    <text x="88" y="530" class="tiny" fill="#BFD0FF">TRANSACTIONS</text>
    <text x="88" y="561" class="kpi">0</text>

    <rect x="16" y="654" width="358" height="88" fill="#FFFFFF"/>
    <text x="53" y="704" class="navActive">Home</text>
    <text x="141" y="704" class="nav">POS</text>
    <text x="226" y="704" class="nav">Reports</text>
    <text x="315" y="704" class="navActive">More</text>
    <rect x="304" y="620" width="56" height="30" rx="15" fill="#2348B8"/>
    <text x="322" y="640" class="hot">1</text>
    <text x="238" y="643" class="hotText">Tap More</text>
  </g>

  <!-- Phone 2 -->
  <g transform="translate(525 165)">
    <rect x="0" y="0" width="390" height="760" rx="38" fill="#FFFFFF" filter="url(#shadow)"/>
    <rect x="16" y="18" width="358" height="724" rx="30" fill="#EEF1F7"/>
    <rect x="16" y="18" width="358" height="724" rx="30" fill="#D6DCE8" opacity="0.55"/>
    <rect x="35" y="90" width="320" height="630" rx="30" fill="#FFFFFF" filter="url(#shadow)"/>
    <rect x="165" y="106" width="60" height="5" rx="3" fill="#D1D7E2"/>
    <circle cx="68" cy="148" r="22" fill="#EAF0FF"/>
    <text x="57" y="155" font-family="Inter,system-ui" font-size="14" font-weight="900" fill="#2348B8">AK</text>
    <text x="100" y="143" font-family="Inter,system-ui" font-size="17" font-weight="850" fill="#172033">Akosua Mensah</text>
    <text x="100" y="164" class="tiny">OWNER - MAIN BRANCH</text>
    <rect x="279" y="126" width="60" height="28" rx="14" fill="#DDFBEA"/>
    <text x="293" y="144" font-family="Inter,system-ui" font-size="10" font-weight="900" letter-spacing="2" fill="#00875A">ONLINE</text>

    <text x="58" y="204" class="tiny">QUICK ACTIONS</text>
    <rect x="58" y="222" width="144" height="78" rx="18" fill="#2348B8"/>
    <text x="82" y="253" font-family="Inter,system-ui" font-size="15" font-weight="850" fill="#FFFFFF">Open POS</text>
    <text x="82" y="275" font-family="Inter,system-ui" font-size="12" font-weight="600" fill="#C8D6FF">Start selling</text>
    <rect x="214" y="222" width="122" height="78" rx="18" fill="#FFF8DE" stroke="#F3D675"/>
    <text x="234" y="253" class="label" fill="#7A4B00">4 issues</text>
    <text x="234" y="275" class="muted">Attention</text>
    <rect x="58" y="312" width="144" height="68" rx="16" fill="#FFFFFF" stroke="#E5E9F2"/>
    <text x="82" y="340" class="label">Trading Report</text>
    <text x="82" y="361" class="muted">Sales and profit</text>
    <rect x="214" y="312" width="122" height="68" rx="16" fill="#FFFFFF" stroke="#E5E9F2"/>
    <text x="234" y="340" class="label">Cash Drawer</text>
    <text x="234" y="361" class="muted">Till status</text>

    <text x="58" y="416" class="tiny">BROWSE BY AREA</text>
    <g>
      <rect x="58" y="435" width="278" height="45" rx="14" fill="#F9FAFC" stroke="#E8ECF3"/>
      <text x="79" y="463" class="body">Sell</text><text x="276" y="463" class="muted">></text>
      <rect x="58" y="488" width="278" height="45" rx="14" fill="#F9FAFC" stroke="#E8ECF3"/>
      <text x="79" y="516" class="body">Stock</text><text x="276" y="516" class="muted">></text>
      <rect x="58" y="541" width="278" height="45" rx="14" fill="#F9FAFC" stroke="#E8ECF3"/>
      <text x="79" y="569" class="body">Money</text><text x="276" y="569" class="muted">></text>
      <rect x="58" y="594" width="278" height="45" rx="14" fill="#F2F6FF" stroke="#BFD0FF"/>
      <text x="79" y="622" class="body" fill="#2348B8">Reports</text><text x="276" y="622" class="muted">v</text>
      <rect x="236" y="579" width="72" height="28" rx="14" fill="#2348B8"/>
      <text x="249" y="597" class="hot">2</text>
      <text x="272" y="598" class="hot" font-size="10">EXPAND</text>
    </g>
    <text x="58" y="680" class="tiny">RECENT</text>
    <text x="58" y="707" class="body">Command Center</text>
    <rect x="257" y="690" width="54" height="24" rx="12" fill="#EAF0FF"/>
    <text x="271" y="706" font-family="Inter,system-ui" font-size="10" font-weight="800" fill="#2348B8">Today</text>
  </g>

  <!-- Phone 3 -->
  <g transform="translate(980 165)">
    <rect x="0" y="0" width="390" height="760" rx="38" fill="#FFFFFF" filter="url(#shadow)"/>
    <rect x="16" y="18" width="358" height="724" rx="30" fill="#EEF1F7"/>
    <rect x="16" y="18" width="358" height="724" rx="30" fill="#D6DCE8" opacity="0.55"/>
    <rect x="35" y="90" width="320" height="630" rx="30" fill="#FFFFFF" filter="url(#shadow)"/>
    <rect x="165" y="106" width="60" height="5" rx="3" fill="#D1D7E2"/>
    <circle cx="68" cy="148" r="22" fill="#EAF0FF"/>
    <text x="57" y="155" font-family="Inter,system-ui" font-size="14" font-weight="900" fill="#2348B8">AK</text>
    <text x="100" y="143" font-family="Inter,system-ui" font-size="17" font-weight="850" fill="#172033">Akosua Mensah</text>
    <text x="100" y="164" class="tiny">OWNER - MAIN BRANCH</text>
    <rect x="279" y="126" width="60" height="28" rx="14" fill="#DDFBEA"/>
    <text x="293" y="144" font-family="Inter,system-ui" font-size="10" font-weight="900" letter-spacing="2" fill="#00875A">ONLINE</text>

    <text x="58" y="204" class="tiny">QUICK ACTIONS</text>
    <rect x="58" y="222" width="278" height="58" rx="17" fill="#2348B8"/>
    <text x="86" y="252" font-family="Inter,system-ui" font-size="15" font-weight="850" fill="#FFFFFF">Open POS</text>
    <text x="250" y="252" font-family="Inter,system-ui" font-size="16" font-weight="800" fill="#C8D6FF">></text>
    <rect x="58" y="292" width="278" height="52" rx="16" fill="#FFF8DE" stroke="#F3D675"/>
    <text x="86" y="324" class="label" fill="#7A4B00">4 issues need attention</text>

    <text x="58" y="382" class="tiny">BROWSE BY AREA</text>
    <rect x="58" y="402" width="278" height="48" rx="14" fill="#F9FAFC" stroke="#E8ECF3"/>
    <text x="79" y="431" class="body">Sell</text><text x="276" y="431" class="muted">></text>
    <rect x="58" y="458" width="278" height="48" rx="14" fill="#F9FAFC" stroke="#E8ECF3"/>
    <text x="79" y="487" class="body">Stock</text><text x="276" y="487" class="muted">></text>
    <rect x="58" y="514" width="278" height="48" rx="14" fill="#F9FAFC" stroke="#E8ECF3"/>
    <text x="79" y="543" class="body">Money</text><text x="276" y="543" class="muted">></text>
    <rect x="58" y="570" width="278" height="48" rx="14" fill="#F2F6FF" stroke="#BFD0FF"/>
    <text x="79" y="599" class="body" fill="#2348B8">Reports</text><text x="276" y="599" class="muted">v</text>
    <rect x="78" y="626" width="238" height="36" rx="12" fill="#FFFFFF" stroke="#E5E9F2"/>
    <text x="96" y="649" class="body">Command Center</text><rect x="250" y="635" width="47" height="20" rx="10" fill="#EAF0FF"/><text x="260" y="649" font-family="Inter,system-ui" font-size="9" font-weight="800" fill="#2348B8">Today</text>
    <rect x="78" y="669" width="238" height="36" rx="12" fill="#FFFFFF" stroke="#E5E9F2"/>
    <text x="96" y="692" class="body">Trading Report</text><rect x="254" y="678" width="43" height="20" rx="10" fill="#F1F5F9"/><text x="266" y="692" font-family="Inter,system-ui" font-size="9" font-weight="800" fill="#64748B">7d</text>
    <rect x="78" y="712" width="238" height="36" rx="12" fill="#EAF0FF" stroke="#BFD0FF"/>
    <text x="96" y="735" class="body" fill="#2348B8">Sales Analytics</text><rect x="254" y="721" width="43" height="20" rx="10" fill="#FFFFFF"/><text x="265" y="735" font-family="Inter,system-ui" font-size="9" font-weight="800" fill="#2348B8">90d</text>
    <rect x="250" y="702" width="60" height="28" rx="14" fill="#2348B8"/>
    <text x="265" y="720" class="hot">3</text>
    <text x="286" y="720" class="hot" font-size="10">OPEN</text>
  </g>

  <text x="70" y="950" class="muted">Design note: More is the single owner navigation drawer. Home remains the command center; the drawer is for movement, not duplicate KPI analysis.</text>
</svg>
